<svg id="Capa_1" enable-background="new 0 0 512.002 512.002" height="512" viewBox="0 0 512.002 512.002" width="512" xmlns="http://www.w3.org/2000/svg"><g><g><path d="m406.872 379.872c-11.723-18.398-3.899-29.987 0-44.266s2.365-26.903-4.679-44.266c-10.138-24.989-3.554-40.055.78-60.688 7.799-37.126-14.038-62.83-14.038-62.83l-132.934-30.592v285.804l158.431.154c4.31-14.583 1.03-29.834-7.56-43.316z" fill="#c38c66"/><path d="m105.13 379.872c11.723-18.398 3.899-29.987 0-44.266s-2.365-26.903 4.679-44.266c10.138-24.989 3.554-40.055-.78-60.688-7.799-37.126 14.038-62.83 14.038-62.83l132.934-30.592v285.804l-158.431.154c-4.31-14.583-1.031-29.834 7.56-43.316z" fill="#b57f5f"/><path d="m327.719 398.126c-9.387-3.52-15.605-12.493-15.605-22.517v-31.431h-112.226v31.431c0 10.025-6.218 18.998-15.605 22.517l-48.524 18.197 64.129 88.177h112.226l64.129-88.177z" fill="#f6d190"/><path d="m256.001 392.274c20.259 0 39.346-4.826 56.381-13.19-.166-1.14-.268-2.299-.268-3.476v-31.431h-112.226v31.431c0 1.177-.102 2.335-.268 3.476 17.035 8.365 36.122 13.19 56.381 13.19z" fill="#ecbd83"/><path d="m360.211 408.306-76.364 20.826c-6.975 1.902-11.814 8.238-11.814 15.467v43.868c0 8.854-7.178 16.032-16.032 16.032-8.854 0-16.032-7.178-16.032-16.032v-43.867c0-7.23-4.839-13.565-11.814-15.467l-76.364-20.826v72.145l48.097 24.048h112.226l48.097-16.032z" fill="#966a5b"/><path d="m256.001 368.226c-57.554 0-104.21-46.656-104.21-104.21v-128.258h208.419v128.258c.001 57.554-46.656 104.21-104.209 104.21z" fill="#ffe09f"/><path d="m256.001 175.839c36.53 0 72.172 5.224 104.21 14.797v-54.878h-208.42v128.258c0 57.553 46.656 104.21 104.21 104.21 5.467 0 10.793-.547 16.032-1.359-49.921-7.729-88.177-50.764-88.177-102.851v-60.803c0-11.936 8.725-22.195 20.549-23.828 16.794-2.32 34.085-3.546 51.596-3.546z" fill="#f6d190"/><path d="m336.162 272.032h-36.407-35.741l-8.012-8.016-8.018 8.016h-72.144c-13.282 0-24.048-10.767-24.048-24.048v16.032c0 57.553 46.656 104.21 104.21 104.21s104.21-46.656 104.21-104.21v-16.032c-.001 13.281-10.768 24.048-24.05 24.048z" fill="#966a5b"/><path d="m256.001 368.226c5.467 0 10.793-.547 16.032-1.359-47.331-7.328-84.114-46.409-87.81-94.835h-8.383c-13.282 0-24.048-10.767-24.048-24.048v16.032c-.001 57.553 46.656 104.21 104.209 104.21z" fill="#785353"/><path d="m256.001 151.79c81.198 0 153.28 23.877 198.621 60.794 10.299 8.385 26.104 1.313 26.1-11.968-.019-53.511-51.425-81.734-80.431-104.939-40.08-32.064-48.096-88.177-144.29-88.177s-104.21 56.113-144.29 88.177c-29.006 23.205-80.411 51.427-80.431 104.939-.005 13.281 15.801 20.353 26.1 11.968 45.341-36.917 117.423-60.794 198.621-60.794z" fill="#5d5360"/><path d="m400.291 95.677c-40.08-32.064-48.096-88.177-144.29-88.177s-104.21 56.113-144.29 88.177c-29.006 23.204-80.411 51.427-80.43 104.938-.005 13.281 15.8 20.353 26.099 11.968 1.146-.933 2.383-1.82 3.562-2.736v-6.453c.012-27.468 22.113-45.993 53.337-69.168 5.687-4.216 11.084-8.233 15.911-12.115 14.08-11.315 24.657-24.529 33.986-36.191 21.535-26.91 37.093-46.355 91.825-46.355s70.29 19.445 91.825 46.355c9.329 11.662 19.906 24.876 33.986 36.191 4.827 3.882 10.225 7.899 15.911 12.115 31.224 23.176 53.325 41.701 53.337 69.168v6.453c1.18.916 2.416 1.803 3.562 2.736 10.299 8.386 26.104 1.313 26.099-11.968-.018-53.511-51.424-81.733-80.43-104.938z" fill="#ffe07d"/><circle cx="211.912" cy="211.911" fill="#5d5360" r="28.056"/><path d="m158.246 407.334c-3.542-8.264-13.185-12-21.37-8.28l-45.067 20.485c-17.17 7.805-28.194 24.925-28.194 43.786v41.175h136.274z" fill="#5d5360"/><circle cx="256.001" cy="95.677" fill="#ffe07d" r="24.048"/><path d="m256.001 264.016h-24.048c-13.282 0-24.048 10.767-24.048 24.048h24.048c13.281.001 24.048-10.766 24.048-24.048z" fill="#785353"/><path d="m256.001 264.016h24.048c13.282 0 24.048 10.767 24.048 24.048h-24.048c-13.281.001-24.048-10.766-24.048-24.048z" fill="#785353"/><path d="m353.756 407.334c3.542-8.264 13.185-12 21.37-8.28l45.067 20.485c17.17 7.805 28.194 24.925 28.194 43.786v41.175h-136.273z" fill="#5d5360"/></g><g><path d="m304.098 216.436c-4.142 0-7.5 3.358-7.5 7.5v8.016c0 4.142 3.358 7.5 7.5 7.5s7.5-3.358 7.5-7.5v-8.016c0-4.143-3.358-7.5-7.5-7.5z"/><path d="m312.114 192.387h-16.032c-4.142 0-7.5 3.358-7.5 7.5s3.358 7.5 7.5 7.5h16.032c4.142 0 7.5-3.358 7.5-7.5s-3.358-7.5-7.5-7.5z"/><path d="m239.969 319.613h32.064c4.142 0 7.5-3.358 7.5-7.5s-3.358-7.5-7.5-7.5h-32.064c-4.142 0-7.5 3.358-7.5 7.5s3.358 7.5 7.5 7.5z"/><path d="m419.492 100.811c-5.223-3.858-10.155-7.502-14.515-10.99-10.511-8.409-18.736-18.641-27.445-29.473-22.74-28.287-48.514-60.348-121.531-60.348s-98.791 32.061-121.531 60.348c-8.708 10.833-16.934 21.064-27.445 29.473-4.36 3.488-9.292 7.132-14.515 10.99-28.998 21.422-68.712 50.76-68.73 99.803-.003 8.932 5.056 16.888 13.203 20.763 3.307 1.573 6.811 2.345 10.281 2.345 5.307 0 10.535-1.807 14.851-5.321 12.517-10.191 27.278-19.39 43.692-27.309-4.783 11.365-8.307 27.15-4.093 45.795.707 3.125 1.462 6.083 2.192 8.944 3.796 14.863 6.538 25.602-.971 42.803-7.893 18.081-9.342 31.482-5.001 46.255.769 2.616 1.65 5.067 2.502 7.438 3.576 9.942 5.938 16.51-1.493 27.347-9.393 13.701-12.723 28.732-9.591 42.744l-.649.295c-19.798 8.999-32.591 28.866-32.591 50.614v41.173c0 4.142 3.358 7.5 7.5 7.5s7.5-3.358 7.5-7.5v-41.175c0-15.88 9.341-30.387 23.798-36.958l45.067-20.485c2.107-.958 4.456-1.024 6.613-.188 2.158.836 3.848 2.468 4.76 4.595l41.643 97.166c1.219 2.844 3.987 4.547 6.897 4.547.986 0 1.988-.196 2.951-.608 3.807-1.632 5.571-6.041 3.939-9.848l-35.275-82.308 54.927 16.817c3.609 1.105 6.035 4.384 6.035 8.159v44.254c0 12.976 10.557 23.532 23.532 23.532s23.532-10.557 23.532-23.532v-44.254c0-3.775 2.425-7.054 6.035-8.159l54.927-16.817-35.275 82.308c-1.632 3.808.132 8.216 3.939 9.848.963.413 1.965.608 2.951.608 2.91 0 5.678-1.704 6.897-4.547l41.643-97.166c.912-2.127 2.602-3.759 4.76-4.595 2.159-.836 4.507-.769 6.613.188l45.067 20.485c14.457 6.571 23.798 21.078 23.798 36.958v41.175c0 4.142 3.358 7.5 7.5 7.5s7.5-3.358 7.5-7.5v-41.175c0-21.748-12.792-41.615-32.591-50.614l-.652-.296c3.134-14.013-.188-29.032-9.587-42.742-7.43-10.837-5.068-17.405-1.493-27.347.852-2.37 1.734-4.821 2.502-7.438 4.34-14.773 2.891-28.174-5.001-46.254-7.509-17.201-4.767-27.94-.971-42.803.73-2.861 1.486-5.819 2.192-8.944 4.214-18.645.69-34.43-4.093-45.795 16.414 7.919 31.175 17.117 43.692 27.309 7.139 5.813 16.768 6.954 25.132 2.977 8.147-3.875 13.207-11.831 13.203-20.763-.015-49.045-39.729-78.383-68.727-99.804zm-285.72 291.415-30.347 13.794c-1.417-11.238 3.289-21.153 7.89-27.865 5.243-7.647 7.694-15.127 7.492-22.865-.175-6.692-2.25-12.461-4.256-18.041-.814-2.263-1.583-4.401-2.226-6.59-3.334-11.348-2.153-21.112 4.357-36.025 9.57-21.923 5.775-36.783 1.757-52.516-.705-2.761-1.434-5.617-2.095-8.539-6.521-28.856 10.499-49.831 12.867-52.474 5.308-1.993 10.73-3.871 16.271-5.604 34.391-10.757 71.575-16.211 110.518-16.211 6.227 0 12.403.155 18.536.433l-38.263 26.324c-6.369-6.002-14.94-9.693-24.362-9.693-19.606 0-35.556 15.951-35.556 35.557 0 4.783.956 9.346 2.676 13.516l-19.74 13.581v-39.121c0-4.142-3.358-7.5-7.5-7.5s-7.5 3.358-7.5 7.5v64.129c0 37.976 19.053 71.581 48.097 91.774v19.469c0 7.003-4.437 13.274-11.041 15.605l-20.258 7.15c-2.45-2.761-5.527-4.932-9.078-6.308-5.95-2.305-12.429-2.121-18.239.52zm57.584-180.315c0-11.335 9.222-20.557 20.556-20.557 11.335 0 20.557 9.222 20.557 20.557s-9.222 20.556-20.557 20.556c-11.334.001-20.556-9.221-20.556-20.556zm89.82 209.801c-9.955 3.048-16.643 12.091-16.643 22.501v44.254c0 4.705-3.828 8.532-8.532 8.532s-8.532-3.828-8.532-8.532v-44.254c0-10.411-6.688-19.454-16.643-22.501l-49.163-15.052 4.676-1.65c12.59-4.444 21.049-16.399 21.049-29.75v-10.678c14.705 7.137 31.199 11.145 48.613 11.145s33.908-4.007 48.613-11.145v10.678c0 13.351 8.459 25.306 21.049 29.75l4.676 1.65zm114.481-188.133c-.661 2.922-1.39 5.778-2.095 8.539-4.018 15.733-7.813 30.594 1.757 52.516 6.51 14.914 7.691 24.677 4.357 36.025-.643 2.188-1.412 4.326-2.226 6.59-3.803 10.575-8.536 23.735 3.236 40.905 4.611 6.725 9.309 16.637 7.892 27.866l-30.348-13.794c-5.81-2.641-12.287-2.826-18.239-.52-3.55 1.375-6.627 3.546-9.078 6.308l-20.258-7.15c-6.604-2.331-11.041-8.602-11.041-15.605v-19.469c29.044-20.193 48.097-53.798 48.097-91.774v-64.129c0-4.142-3.358-7.5-7.5-7.5s-7.5 3.358-7.5 7.5v48.097.005c-.003 9.123-7.425 16.543-16.548 16.543h-35.13c-5.58-4.981-12.932-8.016-20.983-8.016h-48.097c-17.396 0-31.548 14.153-31.548 31.548 0 4.142 3.358 7.5 7.5 7.5h24.048c9.628 0 18.257-4.34 24.048-11.161 5.792 6.821 14.42 11.161 24.048 11.161h24.048c4.142 0 7.5-3.358 7.5-7.5 0-2.957-.418-5.816-1.182-8.532h25.747c5.795 0 11.231-1.571 15.903-4.309-5.569 48.068-46.527 85.502-96.064 85.502s-90.495-37.434-96.064-85.502c4.672 2.738 10.108 4.309 15.903 4.309 4.142 0 7.5-3.358 7.5-7.5s-3.358-7.5-7.5-7.5c-6.281 0-11.755-3.518-14.558-8.687l26.268-18.071c6.369 6.003 14.94 9.693 24.362 9.693 19.606 0 35.557-15.95 35.557-35.556 0-4.784-.956-9.347-2.676-13.517l53.597-36.873c23.647 2.528 46.444 7.198 68.13 13.98 5.546 1.735 10.974 3.614 16.287 5.61 3.356 3.856 19.202 24.364 12.85 52.468zm-100.859 46.985h-14.749c-6.427 0-12.01-3.682-14.749-9.048h14.749c6.427 0 12.01 3.682 14.749 9.048zm-48.096-9.048c-2.739 5.366-8.322 9.048-14.749 9.048h-14.749c2.739-5.366 8.322-9.048 14.749-9.048zm221.874-63.686c-3.128 1.488-6.575 1.09-9.219-1.062-.262-.213-.534-.418-.797-.63v-2.747c-.013-30.967-23.371-50.696-56.37-75.19-6.072-4.501-11.082-8.239-15.68-11.937-13.452-10.81-23.746-23.677-32.831-35.033-21.981-27.469-39.344-49.167-97.678-49.167s-75.697 21.697-97.681 49.17c-2.782 3.478-5.659 7.073-8.718 10.727-2.659 3.176-2.24 7.906.936 10.565 3.177 2.66 7.906 2.24 10.565-.936 3.167-3.782 6.097-7.445 8.931-10.988 20.98-26.218 34.841-43.539 85.967-43.539s64.986 17.321 85.968 43.541c9.565 11.957 20.407 25.508 35.143 37.35 4.801 3.861 10.152 7.853 16.141 12.293 25.647 19.036 44.763 34.635 49.281 54.172-48.175-32.034-114.824-50.13-186.532-50.13s-138.357 18.096-186.532 50.13c4.519-19.538 23.634-35.136 49.277-54.169 5.991-4.442 11.34-8.432 16.146-12.294.936-.752 1.856-1.512 2.763-2.279 3.163-2.674 3.559-7.406.885-10.57-2.674-3.163-7.406-3.56-10.569-.885-.813.687-1.637 1.368-2.475 2.041-4.603 3.699-9.613 7.436-15.687 11.939-32.996 24.491-56.354 44.22-56.367 75.191v2.743c-.263.212-.536.417-.797.63-2.645 2.153-6.091 2.55-9.219 1.062-1.397-.665-4.647-2.697-4.646-7.211.015-41.479 34.74-67.131 62.643-87.743 5.342-3.946 10.387-7.674 14.972-11.342 11.798-9.438 20.932-20.8 29.765-31.788 22.633-28.152 44.011-54.744 109.84-54.744s87.207 26.592 109.84 54.746c8.833 10.988 17.967 22.349 29.765 31.788 4.585 3.668 9.63 7.395 14.972 11.342 27.903 20.612 62.628 46.265 62.643 87.743.002 4.514-3.247 6.547-4.645 7.211z"/><path d="m200.789 122.098c1.048 3.143 3.974 5.13 7.114 5.13.786 0 1.586-.125 2.373-.387l24.216-8.114c5.64 5.266 13.202 8.499 21.509 8.499 8.287 0 15.833-3.217 21.469-8.46l24.256 8.076c.787.262 1.586.387 2.373.387 3.14 0 6.066-1.988 7.114-5.13 1.31-3.93-.814-8.177-4.744-9.487l-20.579-6.86c1.07-3.166 1.659-6.551 1.659-10.073s-.589-6.908-1.659-10.073l20.579-6.86c3.93-1.31 6.053-5.557 4.744-9.487-1.31-3.929-5.559-6.054-9.487-4.743l-24.234 8.097c-5.638-5.256-13.193-8.482-21.491-8.482-8.289 0-15.836 3.218-21.472 8.464l-24.253-8.079c-3.929-1.309-8.177.814-9.487 4.743-1.31 3.93.814 8.177 4.744 9.487l20.579 6.86c-1.07 3.166-1.659 6.551-1.659 10.073s.589 6.908 1.659 10.073l-20.579 6.86c-3.93 1.309-6.054 5.556-4.744 9.486zm55.212-42.969c9.125 0 16.548 7.424 16.548 16.548s-7.423 16.548-16.548 16.548-16.548-7.424-16.548-16.548 7.423-16.548 16.548-16.548z"/></g></g></svg>